<svg width="920" height="620" viewBox="0 0 920 620" fill="none" xmlns="http://www.w3.org/2000/svg" role="img" aria-label="Stylised Australia chess event radar">
  <defs>
    <radialGradient id="goldGlow" cx="0" cy="0" r="1" gradientUnits="userSpaceOnUse" gradientTransform="translate(620 252) rotate(142) scale(420 286)">
      <stop stop-color="#D7A94D" stop-opacity="0.38"/>
      <stop offset="0.48" stop-color="#D7A94D" stop-opacity="0.08"/>
      <stop offset="1" stop-color="#D7A94D" stop-opacity="0"/>
    </radialGradient>
    <radialGradient id="blueGlow" cx="0" cy="0" r="1" gradientUnits="userSpaceOnUse" gradientTransform="translate(494 384) rotate(18) scale(380 220)">
      <stop stop-color="#4AA3FF" stop-opacity="0.26"/>
      <stop offset="0.55" stop-color="#4AA3FF" stop-opacity="0.06"/>
      <stop offset="1" stop-color="#4AA3FF" stop-opacity="0"/>
    </radialGradient>
    <linearGradient id="land" x1="198" y1="172" x2="727" y2="500" gradientUnits="userSpaceOnUse">
      <stop stop-color="#1D2526"/>
      <stop offset="0.48" stop-color="#141D21"/>
      <stop offset="1" stop-color="#0D1720"/>
    </linearGradient>
    <linearGradient id="coast" x1="178" y1="132" x2="742" y2="504" gradientUnits="userSpaceOnUse">
      <stop stop-color="#F0C66B" stop-opacity="0.66"/>
      <stop offset="0.5" stop-color="#4AA3FF" stop-opacity="0.34"/>
      <stop offset="1" stop-color="#16A394" stop-opacity="0.42"/>
    </linearGradient>
    <filter id="softShadow" x="99" y="97" width="724" height="462" filterUnits="userSpaceOnUse" color-interpolation-filters="sRGB">
      <feDropShadow dx="0" dy="22" stdDeviation="28" flood-color="#02050A" flood-opacity="0.48"/>
      <feDropShadow dx="0" dy="0" stdDeviation="16" flood-color="#D7A94D" flood-opacity="0.12"/>
    </filter>
    <filter id="markerGlow" x="-32" y="-32" width="64" height="64" filterUnits="userSpaceOnUse" color-interpolation-filters="sRGB">
      <feGaussianBlur stdDeviation="8" result="blur"/>
      <feMerge>
        <feMergeNode in="blur"/>
        <feMergeNode in="SourceGraphic"/>
      </feMerge>
    </filter>
    <clipPath id="australiaClip">
      <path d="M155 300C169 237 187 187 236 166C282 146 325 169 366 160C413 149 441 121 497 134C548 145 582 181 625 183C671 185 726 207 752 254C779 302 765 360 731 389C698 417 650 415 626 454C604 491 557 519 513 501C473 485 441 447 393 452C343 457 316 508 267 491C220 474 220 420 183 392C151 367 143 352 155 300Z"/>
    </clipPath>
    <pattern id="grid" width="48" height="48" patternUnits="userSpaceOnUse">
      <path d="M48 0H0V48" stroke="#FFFFFF" stroke-opacity="0.045" stroke-width="1"/>
    </pattern>
  </defs>

  <rect width="920" height="620" fill="transparent"/>
  <g opacity="0.9">
    <ellipse cx="464" cy="316" rx="390" ry="222" fill="url(#goldGlow)"/>
    <ellipse cx="486" cy="354" rx="360" ry="190" fill="url(#blueGlow)"/>
  </g>
  <g opacity="0.5">
    <circle cx="460" cy="314" r="234" stroke="#D7A94D" stroke-opacity="0.12"/>
    <circle cx="460" cy="314" r="154" stroke="#4AA3FF" stroke-opacity="0.11"/>
    <path d="M116 314H804" stroke="#FFFFFF" stroke-opacity="0.045"/>
    <path d="M460 84V540" stroke="#FFFFFF" stroke-opacity="0.045"/>
  </g>

  <g filter="url(#softShadow)">
    <path d="M155 300C169 237 187 187 236 166C282 146 325 169 366 160C413 149 441 121 497 134C548 145 582 181 625 183C671 185 726 207 752 254C779 302 765 360 731 389C698 417 650 415 626 454C604 491 557 519 513 501C473 485 441 447 393 452C343 457 316 508 267 491C220 474 220 420 183 392C151 367 143 352 155 300Z" fill="url(#land)" stroke="url(#coast)" stroke-width="2.2"/>
    <g clip-path="url(#australiaClip)">
      <rect x="118" y="116" width="688" height="420" fill="url(#grid)" opacity="0.62"/>
      <path d="M372 164C359 221 356 278 365 334C376 403 390 435 410 454" stroke="#D7A94D" stroke-opacity="0.16" stroke-width="1.4"/>
      <path d="M548 151C542 214 550 259 583 306C608 343 624 386 626 454" stroke="#4AA3FF" stroke-opacity="0.15" stroke-width="1.4"/>
      <path d="M583 306C634 303 685 299 758 303" stroke="#D7A94D" stroke-opacity="0.16" stroke-width="1.4"/>
      <path d="M626 454C590 448 548 447 504 456" stroke="#4AA3FF" stroke-opacity="0.16" stroke-width="1.4"/>
      <path d="M365 334C300 338 228 348 153 362" stroke="#FFFFFF" stroke-opacity="0.08" stroke-width="1.1"/>
      <rect x="118" y="116" width="688" height="420" fill="url(#goldGlow)" opacity="0.36"/>
      <rect x="118" y="116" width="688" height="420" fill="url(#blueGlow)" opacity="0.46"/>
    </g>
  </g>

  <g filter="url(#markerGlow)">
    <circle cx="230" cy="324" r="6" fill="#F0C66B"/>
    <circle cx="230" cy="324" r="16" stroke="#F0C66B" stroke-opacity="0.28"/>
    <circle cx="650" cy="222" r="6" fill="#F0C66B"/>
    <circle cx="650" cy="222" r="16" stroke="#F0C66B" stroke-opacity="0.28"/>
    <circle cx="666" cy="379" r="6" fill="#4AA3FF"/>
    <circle cx="666" cy="379" r="16" stroke="#4AA3FF" stroke-opacity="0.28"/>
    <circle cx="629" cy="434" r="6" fill="#4AA3FF"/>
    <circle cx="629" cy="434" r="16" stroke="#4AA3FF" stroke-opacity="0.28"/>
  </g>
</svg>
